# xmcd
#
# Track frame offsets:
#	150
#	14831
#	30921
#	44666
#	60485
#	82516
#	95463
#	109448
#	124053
#	137365
#	154473
#
# Disc length: 2256 seconds
#
# Revision: 0
# Processed by: cddbd v1.4PL0 Copyright (c) Steve Scherf et al.
# Submitted via: dBpowerAMP V4.0
#
DISCID=8908ce0b
DTITLE=Too Far Gone - Bæst i test
DYEAR=1900
DGENRE=Country
TTITLE0=Bæst i test
TTITLE1=Deilig
TTITLE2=Sydentur'n
TTITLE3=Skiheis'n
TTITLE4=Så Fin
TTITLE5=Kain Æ Få Lov
TTITLE6=Kæm Tok Ho Me Sæ
TTITLE7=Plattfæst'n
TTITLE8=Tømmerdrefta
TTITLE9=Zetor'n (Remix)
TTITLE10=Liten
EXTD=2. album From Too Far Gone
EXTT0=
EXTT1=
EXTT2=
EXTT3=
EXTT4=
EXTT5=
EXTT6=
EXTT7=
EXTT8=
EXTT9=
EXTT10=
PLAYORDER=
